<?xml version="1.0" encoding="UTF-8"?>
<svg width="216px" height="216px" viewBox="0 0 216 216" version="1.1" xmlns="http://www.w3.org/2000/svg" xmlns:xlink="http://www.w3.org/1999/xlink">
    <!-- Generator: Sketch 47.1 (45422) - http://www.bohemiancoding.com/sketch -->
    <title>def 1</title>
    <desc>Created with Sketch.</desc>
    <defs></defs>
    <g id="Page-1" stroke="none" stroke-width="1" fill="none" fill-rule="evenodd">
        <g id="loghi" transform="translate(-261.000000, -278.000000)">
            <g id="def-1" transform="translate(261.000000, 278.000000)">
                <rect id="Rectangle-2" fill="#00B8BB" x="0" y="0" width="216" height="216" rx="10"></rect>
                <text id="ellipsed" font-family="Eurofurencelight, eurofurence light" font-size="52" font-weight="normal" fill="#FFFFFF">
                    <tspan x="33.1858065" y="180">ellipsed</tspan>
                </text>
                <path d="M115.696628,96.9965371 C117.19185,96.6974928 118.612289,96.4919029 119.957988,96.3797613 C121.303688,96.2676197 122.649367,96.2115498 123.995066,96.2115498 C125.266004,96.2115498 126.592994,96.2676197 127.976073,96.3797613 C129.359153,96.4919029 130.723522,96.6974928 132.069222,96.9965371 C132.069222,99.912219 131.826252,102.678337 131.340305,105.294975 C130.854358,107.911613 130.162828,110.602971 129.265696,113.369131 C127.770474,113.668175 126.350035,113.873765 125.004336,113.985906 C123.658636,114.098048 122.312957,114.154118 120.967258,114.154118 C119.696319,114.154118 118.36933,114.098048 116.98625,113.985906 C115.60317,113.873765 114.238801,113.668175 112.893102,113.369131 C112.893102,110.453449 113.136072,107.68733 113.622019,105.070693 C114.107966,102.454055 114.799495,99.7626969 115.696628,96.9965371 Z" id="." fill="#FFFFFF" transform="translate(122.481162, 105.182834) rotate(-25.000000) translate(-122.481162, -105.182834) "></path>
                <path d="M154.392359,81.2527573 C155.358668,81.0594956 156.276647,80.9266301 157.146325,80.8541569 C158.016003,80.7816837 158.885668,80.7454477 159.755346,80.7454477 C160.576709,80.7454477 161.434295,80.7816837 162.328131,80.8541569 C163.221967,80.9266301 164.10371,81.0594956 164.973388,81.2527573 C164.973388,83.1370596 164.816365,84.9247042 164.502315,86.6157447 C164.188265,88.3067853 163.741353,90.0461151 163.161568,91.8337865 C162.195259,92.0270483 161.27728,92.1599138 160.407602,92.232387 C159.537924,92.3048601 158.668259,92.3410962 157.798581,92.3410962 C156.977218,92.3410962 156.119632,92.3048601 155.225796,92.232387 C154.33196,92.1599138 153.450217,92.0270483 152.580539,91.8337865 C152.580539,89.9494842 152.737562,88.1618397 153.051612,86.4707991 C153.365662,84.7797586 153.812574,83.0404287 154.392359,81.2527573 Z" id=".-copy-4" fill="#FFFFFF" transform="translate(158.776963, 86.543272) rotate(-25.000000) translate(-158.776963, -86.543272) "></path>
                <g id="cut" transform="translate(165.012615, 97.429327) rotate(-47.000000) translate(-165.012615, -97.429327) translate(131.012615, 63.429327)" fill-rule="nonzero" fill="#1B716F">
                    <path d="M50.8138379,58.8741252 L18.2922258,1.30356512 C17.688152,0.240722732 16.3233229,-0.140198318 15.2450092,0.453291209 C14.1666956,1.05114005 13.7818083,2.40190478 14.3814774,3.46910648 L46.9030894,61.0396665 C47.3148244,61.7660114 48.0753701,62.1732959 48.8585685,62.1732959 C49.2300319,62.1732959 49.6059001,62.0802972 49.9549205,61.8899404 C51.0286197,61.2920916 51.4179116,59.9413269 50.8138379,58.8741252 Z" id="Shape"></path>
                    <path d="M56.0987107,45.1732959 C50.0355415,45.1732959 45.0987107,50.1101267 45.0987107,56.1732959 C45.0987107,62.236465 50.0355415,67.1732959 56.0987107,67.1732959 C62.1618798,67.1732959 67.0987107,62.2366713 67.0987107,56.1732959 C67.0987107,50.1099205 62.1618798,45.1732959 56.0987107,45.1732959 Z M56.0987107,62.7733371 C52.4598192,62.7733371 49.4986694,59.8121874 49.4986694,56.1732959 C49.4986694,52.5344044 52.4598192,49.5732546 56.0987107,49.5732546 C59.7376022,49.5732546 62.6987519,52.5344044 62.6987519,56.1732959 C62.6987519,59.8121874 59.7373959,62.7733371 56.0987107,62.7733371 Z" id="Shape"></path>
                    <path d="M51.9537813,0.457163657 C50.8664347,-0.14504925 49.5106075,0.244593503 48.9065261,1.30744427 L16.384502,58.8784585 C15.7804206,59.9502355 16.1653128,61.296444 17.24364,61.8942975 C17.5882601,62.0802964 17.964133,62.1732959 18.3353914,62.1732959 C19.11839,62.1732959 19.879155,61.7658006 20.2908952,61.0440169 L52.8129193,3.47300272 C53.4170008,2.40122566 53.0321086,1.05501722 51.9537813,0.457163657 Z" id="Shape"></path>
                    <path d="M11.0987107,45.1732959 C5.03554154,45.1732959 0.0987106831,50.1101267 0.0987106831,56.1732959 C0.0987106831,62.236465 5.03554154,67.1732959 11.0987107,67.1732959 C17.1618798,67.1732959 22.0987107,62.236465 22.0987107,56.1732959 C22.0987107,50.1101267 17.1620861,45.1732959 11.0987107,45.1732959 Z M11.0987107,62.7733371 C7.45981919,62.7733371 4.49866943,59.8121874 4.49866943,56.1732959 C4.49866943,52.5344044 7.45981919,49.5732546 11.0987107,49.5732546 C14.7376022,49.5732546 17.6987519,52.5344044 17.6987519,56.1732959 C17.6987519,59.8121874 14.7376022,62.7733371 11.0987107,62.7733371 Z" id="Shape"></path>
                </g>
                <path d="M137.462383,89.1306378 C138.633646,88.8963852 139.74633,88.7353389 140.800467,88.6474941 C141.854604,88.5596494 142.908725,88.5157277 143.962862,88.5157277 C144.958435,88.5157277 145.997916,88.5596494 147.081334,88.6474941 C148.164753,88.7353389 149.233514,88.8963852 150.287651,89.1306378 C150.287651,91.4146011 150.097324,93.5814056 149.716663,95.6311162 C149.336003,97.6808269 148.794302,99.7890691 148.091544,101.955906 C146.920281,102.190159 145.807597,102.351205 144.75346,102.43905 C143.699323,102.526894 142.645202,102.570816 141.591065,102.570816 C140.595492,102.570816 139.556011,102.526894 138.472593,102.43905 C137.389174,102.351205 136.320412,102.190159 135.266276,101.955906 C135.266276,99.6719428 135.456603,97.5051383 135.837264,95.4554276 C136.217924,93.405717 136.759625,91.2974748 137.462383,89.1306378 Z" id=".-copy-3" fill="#FFFFFF" transform="translate(142.776963, 95.543272) rotate(-25.000000) translate(-142.776963, -95.543272) "></path>
                <path d="M62.1515712,91.8595194 C62.8465839,97.4196211 64.6999233,101.560676 67.7116451,104.28281 C70.7233669,107.004943 75.1250481,108.365989 80.9168207,108.365989 C85.5502388,108.365989 89.6333773,107.873696 93.1663586,106.889094 C96.6993399,105.904493 100.434977,104.601364 104.373383,102.979667 C106.22675,105.296376 107.471962,108.105344 108.109057,111.406654 C108.746152,114.707965 109.064695,118.211935 109.064695,121.918669 C107.095492,122.845353 104.807776,123.685147 102.201479,124.438078 C99.5951811,125.191008 96.9020472,125.828094 94.1219963,126.349353 C91.3419454,126.870613 88.5619363,127.276031 85.7818854,127.565619 C83.0018345,127.855208 80.5114096,128 78.310536,128 C71.2445734,128 65.1922618,127.131247 60.1534196,125.393715 C55.1145774,123.656184 50.9445636,121.194717 47.6432532,118.009242 C44.3419428,114.823767 41.9094348,110.943338 40.3456562,106.367837 C38.7818776,101.792337 38,96.7246119 38,91.1645102 C38,84.0985475 39.216254,77.1485246 41.6487985,70.3142329 C44.081343,63.4799412 47.5273961,57.3697127 51.987061,51.9833641 C56.4467259,46.5970156 61.8909106,42.2532513 68.3197782,38.9519409 C74.7486458,35.6506304 81.9592946,34 89.9519409,34 C93.7745108,34 97.3363975,34.4633349 100.637708,35.3900185 C103.939018,36.3167021 106.805903,37.7356651 109.238447,39.6469501 C111.670992,41.5582351 113.582248,43.9038678 114.972274,46.6839187 C116.362299,49.4639695 117.057301,52.7073136 117.057301,56.4140481 C117.057301,61.6266434 115.841047,66.1441583 113.408503,69.9667283 C110.975958,73.7892982 107.732614,77.0326423 103.678373,79.6968577 C99.6241325,82.3610731 95.0197423,84.5329552 89.8650647,86.2125693 C84.710387,87.8921834 79.3530777,89.1373958 73.792976,89.948244 L62.1515712,91.8595194 Z M72.0554529,74.1367837 C76.4572001,73.441771 80.0480452,72.5440597 82.8280961,71.4436229 C85.608147,70.3431861 87.8089876,69.1269321 89.4306839,67.7948244 C91.0523803,66.4627167 92.1528006,65.1016705 92.7319778,63.7116451 C93.3111551,62.3216197 93.6007394,60.9316151 93.6007394,59.5415896 C93.6007394,57.340716 92.8767787,55.5452935 91.4288355,54.155268 C89.9808923,52.7652426 88.0406776,52.0702403 85.6081331,52.0702403 C82.5964113,52.0702403 79.8453606,52.7362842 77.3548983,54.0683919 C74.8644361,55.4004996 72.6925539,57.1669637 70.8391867,59.3678373 C68.9858194,61.5687109 67.3931059,64.0880943 66.0609982,66.9260628 C64.7288904,69.7640314 63.7153454,72.6309159 63.0203327,75.5268022 L72.0554529,74.1367837 Z" id="e-copy-4" fill="#FFFFFF"></path>
            </g>
        </g>
    </g>
</svg>